# Blender v2.80 (sub 75) OBJ File: 'Plane.blend'
# www.blender.org
mtllib Bit.mtl
o Bit_Cube.003
v -0.734386 -0.057600 -0.616466
v -0.734386 0.057600 -0.616466
v -0.134386 -0.240000 -0.616466
v -0.134386 0.240000 -0.616466
v -0.134386 -0.057600 0.583534
v -0.134386 0.057600 0.583534
v -0.314386 -0.057600 0.223534
v -0.314386 0.057600 0.223534
v -1.167758 0.000000 -0.845015
v -0.747758 0.000000 -0.005015
v -0.134386 -0.095260 -0.004286
v -0.134386 0.095260 -0.004286
v -0.134386 -0.095260 -0.365895
v -0.134386 0.095260 -0.365895
v 0.734386 -0.057600 -0.616466
v 0.734386 0.057600 -0.616466
v 0.134386 -0.240000 -0.616466
v 0.134386 0.240000 -0.616466
v 0.134386 -0.057600 0.583534
v 0.134386 0.057600 0.583534
v 0.314386 -0.057600 0.223534
v 0.314386 0.057600 0.223534
v 1.167758 0.000000 -0.845015
v 0.747758 0.000000 -0.005015
v 0.134386 -0.095260 -0.004286
v 0.134386 0.095260 -0.004286
v 0.134386 -0.095260 -0.365895
v 0.134386 0.095260 -0.365895
v -0.043909 -0.043909 0.854865
v -0.043909 0.043909 0.854865
v -0.043909 -0.043909 -0.004286
v -0.043909 0.043909 -0.004286
v 0.043909 -0.043909 0.854865
v 0.043909 0.043909 0.854865
v 0.043909 -0.043909 -0.004286
v 0.043909 0.043909 -0.004286
vt 0.142891 0.192520
vt 0.175751 0.188773
vt 0.143382 0.050890
vt 0.348971 0.633521
vt 0.511700 0.556484
vt 0.511700 0.826112
vt 0.511700 0.941667
vt 0.511700 0.556484
vt 0.348971 0.633521
vt 0.511700 0.941667
vt 0.511700 0.826112
vt 0.110380 0.369604
vt 0.247300 0.353988
vt 0.234309 0.702221
vt 0.201448 0.705968
vt 0.214542 0.820779
vt 0.247403 0.817031
vt 0.246911 0.958660
vt 0.595293 0.711781
vt 0.595293 0.442153
vt 0.159819 0.436370
vt 0.214164 0.430172
vt 0.225928 0.533321
vt 0.171583 0.539519
vt 0.142959 0.192508
vt 0.143482 0.050879
vt 0.175821 0.188768
vt 0.348971 0.633521
vt 0.511700 0.941667
vt 0.511700 0.826112
vt 0.511700 0.556484
vt 0.511700 0.556484
vt 0.511700 0.826112
vt 0.511700 0.941667
vt 0.348971 0.633521
vt 0.247333 0.354000
vt 0.110410 0.369585
vt 0.234265 0.702229
vt 0.247333 0.817042
vt 0.214472 0.820782
vt 0.201403 0.705970
vt 0.246810 0.958671
vt 0.595293 0.442153
vt 0.595293 0.711781
vt 0.214181 0.430176
vt 0.159834 0.436362
vt 0.171575 0.539514
vt 0.225922 0.533328
vt 0.888911 0.638937
vt 0.888910 0.693634
vt 0.811747 0.693634
vt 0.811747 0.638937
vt 0.888910 0.797452
vt 0.811747 0.797452
vt 0.888911 0.535119
vt 0.811747 0.535119
vt 0.665284 0.105441
vt 0.690496 0.105441
vt 0.690496 0.352102
vt 0.665284 0.352102
vt 0.862935 0.812194
vt 0.837722 0.812194
vt 0.640071 0.352102
vt 0.614859 0.352102
vt 0.614859 0.105441
vt 0.640071 0.105441
vt 0.715709 0.080229
vt 0.715709 0.105441
vt 0.690496 0.080229
vt 0.715709 0.352102
vt 0.888911 0.852150
vt 0.811747 0.852150
vt 0.837722 0.837407
vt 0.862935 0.837407
vn 0.4665 0.0000 -0.8845
vn -0.2878 0.9468 0.1439
vn -0.2878 -0.9468 0.1439
vn -0.0000 0.0000 -1.0000
vn -0.8944 0.0000 0.4472
vn -0.4665 0.0000 0.8845
vn -0.1769 -0.9802 0.0885
vn -0.1769 0.9802 0.0885
vn 1.0000 0.0000 0.0000
vn -0.4665 0.0000 -0.8845
vn 0.2878 0.9468 0.1439
vn 0.2878 -0.9468 0.1439
vn 0.8944 0.0000 0.4472
vn 0.4665 0.0000 0.8845
vn 0.1769 -0.9802 0.0885
vn 0.1769 0.9802 0.0885
vn -1.0000 0.0000 0.0000
vn 0.0000 1.0000 0.0000
vn 0.0000 -1.0000 0.0000
vn 0.0000 0.0000 1.0000
usemtl Bit
s off
f 2/1/1 1/2/1 9/3/1
f 4/4/2 2/5/2 8/6/2 6/7/2
f 1/8/3 3/9/3 5/10/3 7/11/3
f 1/2/4 2/1/4 4/12/4 3/13/4
f 5/14/5 6/15/5 8/16/5 7/17/5
f 7/17/6 8/16/6 10/18/6
f 1/8/7 7/11/7 10/19/7 9/20/7
f 8/6/8 2/5/8 9/20/8 10/19/8
f 3/13/9 4/12/9 14/21/9 13/22/9
f 6/15/9 5/14/9 11/23/9 12/24/9
f 5/14/9 3/13/9 11/23/9
f 13/22/9 11/23/9 3/13/9
f 6/15/9 12/24/9 4/12/9
f 12/24/9 14/21/9 4/12/9
f 16/25/10 23/26/10 15/27/10
f 18/28/11 20/29/11 22/30/11 16/31/11
f 15/32/12 21/33/12 19/34/12 17/35/12
f 15/27/4 17/36/4 18/37/4 16/25/4
f 19/38/13 21/39/13 22/40/13 20/41/13
f 21/39/14 24/42/14 22/40/14
f 15/32/15 23/43/15 24/44/15 21/33/15
f 22/30/16 24/44/16 23/43/16 16/31/16
f 17/36/17 27/45/17 28/46/17 18/37/17
f 20/41/17 26/47/17 25/48/17 19/38/17
f 19/38/17 25/48/17 17/36/17
f 27/45/17 17/36/17 25/48/17
f 20/41/17 18/37/17 26/47/17
f 26/47/17 18/37/17 28/46/17
f 13/49/4 14/50/4 28/51/4 27/52/4
f 14/50/18 12/53/18 26/54/18 28/51/18
f 11/55/19 13/49/19 27/52/19 25/56/19
f 29/57/17 30/58/17 32/59/17 31/60/17
f 26/54/20 12/53/20 32/61/20 36/62/20
f 35/63/9 36/64/9 34/65/9 33/66/9
f 33/67/20 34/68/20 30/58/20 29/69/20
f 31/60/19 35/63/19 33/66/19 29/57/19
f 36/70/18 32/59/18 30/58/18 34/68/18
f 11/71/20 25/72/20 35/73/20 31/74/20
f 11/71/20 31/74/20 32/61/20 12/53/20
f 25/72/20 26/54/20 36/62/20 35/73/20
