# Blender v2.80 (sub 75) OBJ File: 'Enemy.blend'
# www.blender.org
mtllib Enemy1.mtl
o Enemy_Cube
v 0.000000 -0.211589 3.000000
v 0.211590 0.000000 3.000000
v 0.000000 0.211589 3.000000
v -0.211589 0.000000 3.000000
v -0.500000 -0.000000 1.010051
v 2.346447 0.000000 0.353553
v -0.500000 -0.000000 -1.010051
v 2.346447 0.353554 -0.000000
v -0.500000 -1.010051 0.000000
v 0.500000 1.010051 -0.000000
v 0.500000 -1.010051 -0.000000
v 0.500000 0.000000 -1.010051
v 0.500000 0.000000 1.010051
v -0.500000 1.010051 0.000000
v 0.500000 -2.000000 -0.000000
v 0.500000 0.000000 -2.000000
v 0.500000 0.000000 2.000000
v -0.500000 -0.000000 -2.000000
v -0.500000 2.000000 0.000000
v 0.500000 2.000000 -0.000000
v -0.500000 -2.000000 0.000000
v -0.500000 -0.000000 2.000000
v -0.211589 0.000000 1.010051
v 0.000000 -0.211589 0.798461
v 0.211589 0.000000 1.010051
v 0.000000 0.211589 0.798461
v 2.146447 0.000000 0.353553
v 2.146447 -0.353553 -0.000000
v 2.146447 0.000000 -0.353554
v 2.146447 0.353554 -0.000000
v -2.146447 -0.000000 -0.353553
v -2.146447 -0.353554 0.000000
v -2.146447 -0.000000 0.353554
v -2.146447 0.353553 0.000000
v 2.346447 -0.353553 -0.000000
v 2.346447 0.000000 -0.353554
v -2.346447 0.353553 0.000000
v -2.346447 -0.000000 -0.353553
v -2.346447 -0.353554 0.000000
v -2.346447 -0.000000 0.353554
vt 0.901257 0.727566
vt 0.901257 0.965891
vt 0.868863 0.942985
vt 0.868863 0.727566
vt 0.836470 0.965891
vt 0.836470 0.727566
vt 0.804077 0.942985
vt 0.804077 0.727566
vt 0.771684 0.965891
vt 0.771684 0.727566
vt 0.771684 0.695173
vt 0.804077 0.695173
vt 0.317617 0.305978
vt 0.371744 0.305978
vt 0.497774 0.087687
vt 0.191586 0.087687
vt 0.038492 0.352853
vt 0.290553 0.352853
vt 0.317617 0.399729
vt 0.371744 0.399729
vt 0.497774 0.618020
vt 0.191586 0.618020
vt 0.038492 0.352853
vt 0.290553 0.352853
vt 0.191586 0.087687
vt 0.497774 0.087687
vt 0.371744 0.305978
vt 0.317617 0.305978
vt 0.191586 0.618020
vt 0.497774 0.618020
vt 0.371744 0.399729
vt 0.317617 0.399729
vt 0.607556 0.905848
vt 0.607556 0.959975
vt 0.553429 0.959975
vt 0.553429 0.905848
vt 0.942454 0.357073
vt 0.888327 0.234833
vt 0.911232 0.202440
vt 0.942454 0.202440
vt 0.942454 0.511705
vt 0.834200 0.511705
vt 0.834200 0.357073
vt 0.421996 0.693797
vt 0.421996 0.848430
vt 0.497774 0.924208
vt 0.267364 0.693797
vt 0.267364 0.848430
vt 0.421996 0.848430
vt 0.497774 0.924208
vt 0.191586 0.924208
vt 0.267364 0.848430
vt 0.191586 0.924208
vt 0.421996 0.693797
vt 0.267364 0.693797
vt 0.834200 0.202440
vt 0.865422 0.202440
vt 0.942454 0.666338
vt 0.834200 0.666338
vt 0.834200 0.047808
vt 0.888327 0.170047
vt 0.942454 0.047808
vt 0.629207 0.743468
vt 0.629207 0.797594
vt 0.607556 0.797594
vt 0.607556 0.743468
vt 0.629207 0.851721
vt 0.629207 0.797594
vt 0.607556 0.797594
vt 0.607556 0.851721
vt 0.629207 0.851721
vt 0.629207 0.905848
vt 0.607556 0.851721
vt 0.629207 0.959975
vt 0.553429 0.959975
vt 0.607556 0.959975
vt 0.607556 0.905848
vt 0.553429 0.905848
vt 0.629207 0.905848
vt 0.629207 0.743468
vt 0.607556 0.743468
vt 0.629207 0.959975
vn 0.7071 -0.7071 -0.0000
vn 0.7071 0.7071 -0.0000
vn -0.7071 0.7071 0.0000
vn -0.7071 -0.7071 0.0000
vn 0.0000 0.0000 1.0000
vn 0.5774 -0.5774 -0.5774
vn 0.5774 0.5774 -0.5774
vn -0.5774 -0.5774 0.5774
vn -0.5774 0.5774 0.5774
vn -0.5774 -0.5774 -0.5774
vn -0.5774 0.5774 -0.5774
vn 0.5774 -0.5774 0.5774
vn 1.0000 0.0000 0.0000
vn -0.0000 0.7071 0.7071
vn 0.0000 0.7071 -0.7071
vn -1.0000 -0.0000 0.0000
vn -0.0000 -0.7071 -0.7071
vn -0.0000 -0.7071 0.7071
vn 0.5774 0.5774 0.5774
usemtl Enemy1
s off
f 1/1/1 24/2/1 25/3/1 2/4/1
f 2/4/2 25/3/2 26/5/2 3/6/2
f 3/6/3 26/5/3 23/7/3 4/8/3
f 4/8/4 23/7/4 24/9/4 1/10/4
f 1/10/5 2/11/5 3/12/5 4/8/5
f 29/13/6 28/14/6 15/15/6 16/16/6
f 16/16/7 20/17/7 30/18/7 29/13/7
f 33/19/8 32/20/8 21/21/8 22/22/8
f 22/22/9 19/23/9 34/24/9 33/19/9
f 18/25/10 21/26/10 32/27/10 31/28/10
f 31/28/11 34/24/11 19/23/11 18/25/11
f 17/29/12 15/30/12 28/31/12 27/32/12
f 6/33/13 35/34/13 36/35/13 8/36/13
f 10/37/14 26/38/14 25/39/14 13/40/14
f 12/41/15 7/42/15 14/43/15 10/37/15
f 11/44/16 12/45/16 16/46/16 15/30/16
f 13/47/16 11/44/16 15/30/16 17/29/16
f 14/48/13 7/49/13 18/50/13 19/51/13
f 10/52/16 13/47/16 17/29/16 20/53/16
f 7/49/13 9/54/13 21/21/13 18/50/13
f 9/54/13 5/55/13 22/22/13 21/21/13
f 12/45/16 10/52/16 20/53/16 16/46/16
f 5/55/13 14/48/13 19/51/13 22/22/13
f 14/43/14 5/56/14 23/57/14 26/38/14
f 11/58/17 9/59/17 7/42/17 12/41/17
f 10/37/14 14/43/14 26/38/14
f 5/56/18 9/60/18 24/61/18 23/57/18
f 11/62/18 13/40/18 25/39/18 24/61/18
f 11/62/18 24/61/18 9/60/18
f 28/63/17 29/64/17 36/65/17 35/66/17
f 34/67/15 31/68/15 38/69/15 37/70/15
f 27/32/19 30/18/19 20/17/19 17/29/19
f 30/71/14 27/72/14 6/33/14 8/73/14
f 29/64/15 30/71/15 8/73/15 36/65/15
f 27/72/18 28/74/18 35/34/18 6/33/18
f 38/75/16 39/76/16 40/77/16 37/78/16
f 33/79/14 34/67/14 37/70/14 40/77/14
f 31/68/17 32/80/17 39/81/17 38/69/17
f 32/82/18 33/79/18 40/77/18 39/76/18
